<svg xmlns="http://www.w3.org/2000/svg" xmlns:xlink="http://www.w3.org/1999/xlink" width="204" height="50" viewBox="0 0 204 50" fill="none"><style><![CDATA[.B{fill-rule:evenodd}.C{fill:#f5f5f5}.D{stroke-linejoin:round}]]></style><path d="M89.23 26.618h-7.316L81.905 35h-3.914L78 15h3.914v8.136h7.316V15h3.913l-.009 20h-3.915l.009-8.382h.002zm17.844 3.957h-6.144L99.416 35H95.5l7.202-19.985 2.885-.015 7.203 20h-4.116l-1.6-4.425zm-5.143-3.149h4.286l-1.227-4.491-.859-3.105h-.143l-.806 3.094-1.251 4.502zm29.33-2.726l.021-4.037h-.207l-1.448 3.072L126 31h-1.257l-4.256-7.465-1.549-2.928h-.209l.048 3.892v10.513h-3.352V15h3.659l4.967 8.458 1.233 2.196h.111l1.138-2.251L131.208 15h3.661v20.013h-3.608V24.7zm16.479 4.913c.015-.572-.232-1.119-.67-1.486-.517-.417-1.083-.767-1.687-1.042l-2.201-.965a11.15 11.15 0 0 1-2.201-1.231 6.21 6.21 0 0 1-1.685-1.819 5.15 5.15 0 0 1-.671-2.761c-.022-.868.144-1.73.485-2.528a4.7 4.7 0 0 1 1.386-1.785 6.03 6.03 0 0 1 2.129-1.065c.895-.235 1.818-.351 2.743-.344 1.103-.008 2.204.097 3.287.311a8.9 8.9 0 0 1 3.08 1.109l-1.198 3.338c-.774-.438-1.598-.78-2.454-1.02a10.58 10.58 0 0 0-2.715-.333c-.741-.05-1.478.14-2.103.543-.469.332-.743.877-.728 1.453a1.79 1.79 0 0 0 .672 1.431c.515.421 1.081.776 1.686 1.053l2.2.998a11.78 11.78 0 0 1 2.2 1.253 6.13 6.13 0 0 1 1.687 1.796 4.95 4.95 0 0 1 .671 2.672 6.54 6.54 0 0 1-.529 2.75 5.15 5.15 0 0 1-1.485 1.93c-.685.537-1.473.926-2.315 1.142a11.44 11.44 0 0 1-2.988.377 15.94 15.94 0 0 1-3.773-.399 16.66 16.66 0 0 1-1.956-.532v-3.881c.494.244 1.294.51 1.627.643.369.145.746.267 1.13.366l1.328.288a8.78 8.78 0 0 0 1.439.111c.928.053 1.852-.15 2.672-.588.617-.377.977-1.063.937-1.785zm21.632-11.134h-5.83v16.534h-3.914V18.479h-5.904L154.971 15h14.401v3.479zM172.118 15h11.859v3.479h-7.943v4.658h5.313v3.482h-5.313v4.879h7.969V35h-11.885V15zm16.124.196l1.414-.222 1.516-.155c.506-.044.356-.066.833-.089l1.315-.022c1.137.001 2.272.086 3.396.255a7.36 7.36 0 0 1 2.427.887 4.77 4.77 0 0 1 1.716 1.73 5.39 5.39 0 0 1 .643 2.75 6.65 6.65 0 0 1-1.144 4.003c-.784.872-1.794 1.509-2.917 1.841.551.417 1.03.923 1.416 1.497l3.639 7.319h-4.365l-3.973-8.184-2.001-.022V35h-3.915V15.196zm6.001 2.994l-1.186.033c-.303.003-.605.04-.9.111v5.8h1.66a4.22 4.22 0 0 0 2.6-.743c.699-.617 1.06-1.533.972-2.462.04-.754-.253-1.488-.801-2.007a3.36 3.36 0 0 0-2.345-.732z" fill="#303030" class="B"/><path d="M70.515 35.011l-4.026-6.646-3.994 6.646H58l5.993-10.002L58 15.008h4.498l3.994 6.434 4.002-6.434h4.484l-5.991 10.001 5.991 10.002h-4.463z" fill="#e34449"/><mask id="A" maskUnits="userSpaceOnUse" x="0" y="-1" width="54" height="51" fill="#000"><path fill="#fff" d="M0-1h54v51H0z"/><path d="M21.249 38.819c-.726-.974-1.272-2.026-1.665-2.93l-.083-.195-.265-.668-.005-.013-.167-.465a.42.42 0 0 1-.022-.112c-.017-.303.321-.537.624-.402a11.95 11.95 0 0 0 1.512.554l1.041.249c1.08.202 2.32.256 3.579-.056l.365-.101.36-.121s.223-.083.477-.083c.297 0 .477.083.477.083l.36.121.365.101c1.259.312 2.5.258 3.579.056l1.041-.249a11.97 11.97 0 0 0 1.513-.554c.302-.135.64.099.624.402a.42.42 0 0 1-.022.112l-.167.465-.005.013-.265.668-.083.195c-.393.904-.94 1.956-1.665 2.93C31.476 40.53 29.516 42 27 42s-4.476-1.47-5.751-3.181zm1.422-2.146c1.178.141 2.497.11 3.846-.277v3.843c-1.371-.106-2.495-.834-3.438-1.91l-.408-1.656zm8.658 0c-1.178.141-2.497.11-3.846-.277v3.843c1.371-.106 2.495-.834 3.438-1.91l.408-1.656zM17.24 5.243c-1.563-2.112-3.28-3.88-5.968-3.021-3.518 1.123-4.364 5.897-3.302 9.394.988 3.253 1.13 5.124-.404 6.31l-.235.151-.003.002-.001.001-1.756 1.216C3.378 21.047 2 23.598 2 26.951 2 33.967 14.931 48 27 48s25-14.033 25-21.049c0-3.353-1.378-5.904-3.569-7.655-.556-.444-1.157-.831-1.756-1.216l-.001-.001-.004-.003-.234-.151c-1.534-1.186-1.393-3.057-.404-6.31 1.062-3.496.216-8.27-3.302-9.394-2.688-.859-4.405.909-5.968 3.021-.287.387-.499.724-.678 1.008-.588.932-.809 1.281-2.072.905-2.272-.805-4.494-1.254-7.01-1.254s-4.739.448-7.01 1.254c-1.263.377-1.484.027-2.072-.905-.179-.283-.392-.621-.678-1.008zm-5.394 1.129c-.863 0-1.725.437-1.726 2.185 0 .897.227 1.679.506 2.64.265.913.577 1.988.787 3.478 3.019-1.748 3.451-2.622 3.451-4.371s-1.725-3.933-3.018-3.933zm30.308 0c.863 0 1.725.437 1.726 2.185 0 .897-.227 1.679-.506 2.64-.265.913-.577 1.988-.787 3.478-3.019-1.748-3.45-2.622-3.45-4.371s1.725-3.933 3.018-3.933zM27 8.63c-2.291 0-4.309.424-6.479 1.23.791 1.162 1.512 2.117 2.767 3.55 1.467 1.676 2.962 3.445 2.962 5.856 0 1.275-.491 2.431-1.027 3.312-.23.412-.492.786-.772 1.148-.145.187-.288.359-.424.523-.629.759-1.119 1.351-1.119 2.539 0 2.136 2.085 3.629 4.091 3.629 2.043 0 4.091-1.473 4.091-3.629 0-1.188-.49-1.779-1.119-2.539l-.424-.523c-.281-.362-.542-.736-.772-1.148-.535-.881-1.027-2.036-1.027-3.312 0-2.412 1.495-4.18 2.962-5.856 1.254-1.433 1.976-2.389 2.767-3.55-2.17-.806-4.188-1.23-6.479-1.23zM11.789 38.091c4.497 4.16 10.125 7.18 15.211 7.18s10.714-3.021 15.211-7.18c2.211-2.045 4.036-4.265 5.288-6.323 1.296-2.13 1.808-3.804 1.808-4.817 0-1.229-.238-2.282-.667-3.183-1.145-1.78-2.303-2.26-3.28-2.196-1.559.103-1.199 2.24-.877 3.789.751 3.613-2.778 9.342-6.309 12.512-.671.602-1.547-.274-1.276-1.139.776-2.474.816-6.001-3.302-8.886-.494 3.143-3.564 5.045-6.598 5.045s-6.103-1.902-6.597-5.045c-4.118 2.885-4.078 6.412-3.302 8.886.271.865-.605 1.741-1.276 1.139-3.53-3.17-7.06-8.9-6.309-12.512.322-1.549.682-3.687-.877-3.789-.977-.064-2.135.416-3.28 2.196-.428.901-.667 1.954-.667 3.183 0 1.013.513 2.687 1.808 4.817 1.253 2.059 3.077 4.279 5.288 6.323zm4.544-21.216c-1.674 1.508-1.945 3.708-.606 4.914a2.78 2.78 0 0 0 .615.418 3.44 3.44 0 0 0 .729.269 3.01 3.01 0 0 1-.826-2.076 3.02 3.02 0 0 1 3.021-3.021c1.49 0 2.727 1.078 2.976 2.497.642-1.277.518-2.673-.453-3.547-1.339-1.206-3.781-.962-5.455.546zm21.948 4.914c1.339-1.206 1.068-3.407-.606-4.914s-4.116-1.752-5.455-.546c-.97.874-1.095 2.271-.453 3.547a3.02 3.02 0 0 1 5.997.524 3.01 3.01 0 0 1-.826 2.076 3.47 3.47 0 0 0 .729-.269 2.78 2.78 0 0 0 .615-.418z" class="B"/><path d="M20.521 9.861c2.17-.806 4.188-1.23 6.479-1.23s4.309.424 6.479 1.23c-.791 1.162-1.512 2.117-2.767 3.55-1.467 1.676-2.962 3.445-2.962 5.856 0 1.275.491 2.431 1.027 3.312.23.412.492.786.772 1.148l.424.523c.629.759 1.119 1.351 1.119 2.539 0 2.156-2.048 3.629-4.091 3.629-2.005 0-4.091-1.493-4.091-3.629 0-1.188.49-1.779 1.119-2.539l.424-.523c.281-.362.542-.736.772-1.148.535-.881 1.027-2.036 1.027-3.312 0-2.412-1.495-4.18-2.962-5.856-1.254-1.433-1.976-2.389-2.767-3.55zm-10.4-1.304c0-1.748.863-2.185 1.726-2.185 1.293 0 3.018 2.185 3.018 3.933s-.431 2.622-3.45 4.371c-.21-1.49-.522-2.565-.787-3.478-.279-.962-.506-1.744-.506-2.64zm33.759 0c0-1.748-.862-2.185-1.726-2.185-1.293 0-3.018 2.185-3.018 3.933s.431 2.622 3.45 4.371c.21-1.49.522-2.565.787-3.478.279-.962.506-1.744.506-2.64zm-6.205 8.318c1.674 1.508 1.945 3.708.606 4.914a2.78 2.78 0 0 1-.615.418 3.47 3.47 0 0 1-.729.269 3.01 3.01 0 0 0 .826-2.076 3.02 3.02 0 0 0-3.021-3.021c-1.49 0-2.727 1.078-2.976 2.497-.642-1.277-.518-2.673.453-3.547 1.339-1.206 3.781-.962 5.455.546zm-21.948 4.914c-1.339-1.206-1.068-3.407.606-4.914s4.116-1.752 5.455-.546c.971.874 1.095 2.271.453 3.547a3.02 3.02 0 0 0-5.997.524 3.01 3.01 0 0 0 .826 2.076c-.246-.061-.49-.149-.729-.269a2.78 2.78 0 0 1-.615-.418z"/><path d="M27 45.271c-5.086 0-10.714-3.021-15.211-7.18-2.211-2.045-4.036-4.265-5.288-6.323-1.296-2.13-1.808-3.804-1.808-4.817 0-1.229.239-2.282.667-3.183 1.145-1.78 2.303-2.26 3.28-2.196 1.559.103 1.199 2.24.877 3.789-.751 3.613 2.778 9.342 6.309 12.512.671.602 1.547-.274 1.276-1.139-.776-2.474-.816-6.001 3.302-8.886.494 3.143 3.564 5.045 6.598 5.045s6.104-1.902 6.598-5.045c4.118 2.885 4.078 6.412 3.302 8.886-.271.865.605 1.741 1.276 1.139 3.53-3.17 7.06-8.9 6.309-12.512-.322-1.549-.682-3.687.877-3.789.977-.064 2.135.416 3.28 2.196.428.901.667 1.954.667 3.183 0 1.013-.512 2.687-1.808 4.817-1.253 2.059-3.078 4.279-5.288 6.323-4.497 4.16-10.125 7.18-15.211 7.18zm-5.751-6.453c-.726-.974-1.272-2.026-1.665-2.93l-.083-.195a18.05 18.05 0 0 1-.265-.668l-.005-.013-.167-.465a.42.42 0 0 1-.022-.112c-.017-.303.321-.537.624-.402.399.178.915.38 1.512.554.325.094.674.18 1.041.249 1.08.202 2.32.256 3.579-.056a7.05 7.05 0 0 0 .365-.101 7.04 7.04 0 0 0 .36-.121s.223-.083.477-.083c.297 0 .477.083.477.083a7.04 7.04 0 0 0 .36.121 7.05 7.05 0 0 0 .365.101c1.259.312 2.5.258 3.579.056.368-.069.716-.155 1.041-.249.598-.174 1.113-.376 1.513-.554.302-.135.64.099.624.402a.42.42 0 0 1-.022.112 17.75 17.75 0 0 1-.167.465l-.005.013a18.05 18.05 0 0 1-.265.668l-.083.195c-.393.904-.94 1.956-1.665 2.93C31.476 40.53 29.516 42 27 42s-4.476-1.47-5.751-3.181z" class="B"/><path d="M26.517 36.395c-1.348.387-2.668.418-3.846.277l.408 1.656c.942 1.076 2.066 1.804 3.438 1.91v-3.843zm.966 0c1.348.387 2.668.418 3.846.277l-.408 1.656c-.942 1.076-2.066 1.804-3.438 1.91v-3.843z"/></mask><g class="B C"><use xlink:href="#C"/><use xlink:href="#D"/></g><path d="M20.521 9.861c2.17-.806 4.188-1.23 6.479-1.23s4.309.424 6.479 1.23c-.791 1.162-1.512 2.117-2.767 3.55-1.467 1.676-2.962 3.445-2.962 5.856 0 1.275.491 2.431 1.027 3.312.23.412.492.786.772 1.148l.424.523c.629.759 1.119 1.351 1.119 2.539 0 2.156-2.048 3.629-4.091 3.629-2.005 0-4.091-1.493-4.091-3.629 0-1.188.49-1.779 1.119-2.539l.424-.523c.281-.362.542-.736.772-1.148.535-.881 1.027-2.036 1.027-3.312 0-2.412-1.495-4.18-2.962-5.856-1.254-1.433-1.976-2.389-2.767-3.55zm-10.4-1.304c0-1.748.863-2.185 1.726-2.185 1.293 0 3.018 2.185 3.018 3.933s-.431 2.622-3.45 4.371c-.21-1.49-.522-2.565-.787-3.478-.279-.962-.506-1.744-.506-2.64zm33.759 0c0-1.748-.862-2.185-1.726-2.185-1.293 0-3.018 2.185-3.018 3.933s.431 2.622 3.45 4.371c.21-1.49.522-2.565.787-3.478.279-.962.506-1.744.506-2.64zm-6.205 8.318c1.674 1.508 1.945 3.708.606 4.914a2.78 2.78 0 0 1-.615.418 3.47 3.47 0 0 1-.729.269 3.01 3.01 0 0 0 .826-2.076 3.02 3.02 0 0 0-3.021-3.021c-1.49 0-2.727 1.078-2.976 2.497-.642-1.277-.518-2.673.453-3.547 1.339-1.206 3.781-.962 5.455.546zm-21.948 4.914c-1.339-1.206-1.068-3.407.606-4.914s4.116-1.752 5.455-.546c.971.874 1.095 2.271.453 3.547a3.02 3.02 0 0 0-5.997.524 3.01 3.01 0 0 0 .826 2.076c-.246-.061-.49-.149-.729-.269a2.78 2.78 0 0 1-.615-.418z" class="C"/><path d="M27 45.271c-5.086 0-10.714-3.021-15.211-7.18-2.211-2.045-4.036-4.265-5.288-6.323-1.296-2.13-1.808-3.804-1.808-4.817 0-1.229.239-2.282.667-3.183 1.145-1.78 2.303-2.26 3.28-2.196 1.559.103 1.199 2.24.877 3.789-.751 3.613 2.778 9.342 6.309 12.512.671.602 1.547-.274 1.276-1.139-.776-2.474-.816-6.001 3.302-8.886.494 3.143 3.564 5.045 6.598 5.045s6.104-1.902 6.598-5.045c4.118 2.885 4.078 6.412 3.302 8.886-.271.865.605 1.741 1.276 1.139 3.53-3.17 7.06-8.9 6.309-12.512-.322-1.549-.682-3.687.877-3.789.977-.064 2.135.416 3.28 2.196.428.901.667 1.954.667 3.183 0 1.013-.512 2.687-1.808 4.817-1.253 2.059-3.078 4.279-5.288 6.323-4.497 4.16-10.125 7.18-15.211 7.18zm-5.751-6.453c-.726-.974-1.272-2.026-1.665-2.93l-.083-.195a18.05 18.05 0 0 1-.265-.668l-.005-.013-.167-.465a.42.42 0 0 1-.022-.112c-.017-.303.321-.537.624-.402.399.178.915.38 1.512.554.325.094.674.18 1.041.249 1.08.202 2.32.256 3.579-.056a7.05 7.05 0 0 0 .365-.101 7.04 7.04 0 0 0 .36-.121s.223-.083.477-.083c.297 0 .477.083.477.083a7.04 7.04 0 0 0 .36.121 7.05 7.05 0 0 0 .365.101c1.259.312 2.5.258 3.579.056.368-.069.716-.155 1.041-.249.598-.174 1.113-.376 1.513-.554.302-.135.64.099.624.402a.42.42 0 0 1-.022.112 17.75 17.75 0 0 1-.167.465l-.005.013a18.05 18.05 0 0 1-.265.668l-.083.195c-.393.904-.94 1.956-1.665 2.93C31.476 40.53 29.516 42 27 42s-4.476-1.47-5.751-3.181z" class="B C"/><path d="M26.517 36.395c-1.348.387-2.668.418-3.846.277l.408 1.656c.942 1.076 2.066 1.804 3.438 1.91v-3.843zm.966 0c1.348.387 2.668.418 3.846.277l-.408 1.656c-.942 1.076-2.066 1.804-3.438 1.91v-3.843z" class="C"/><path d="M21.249 38.819c-.726-.974-1.272-2.026-1.665-2.93l-.083-.195-.265-.668-.005-.013-.167-.465a.42.42 0 0 1-.022-.112c-.017-.303.321-.537.624-.402a11.95 11.95 0 0 0 1.512.554l1.041.249c1.08.202 2.32.256 3.579-.056l.365-.101.36-.121s.223-.083.477-.083c.297 0 .477.083.477.083l.36.121.365.101c1.259.312 2.5.258 3.579.056l1.041-.249a11.97 11.97 0 0 0 1.513-.554c.302-.135.64.099.624.402a.42.42 0 0 1-.022.112l-.167.465-.005.013-.265.668-.083.195c-.393.904-.94 1.956-1.665 2.93C31.476 40.53 29.516 42 27 42s-4.476-1.47-5.751-3.181zm1.422-2.146c1.178.141 2.497.11 3.846-.277v3.843c-1.371-.106-2.495-.834-3.438-1.91l-.408-1.656zm8.658 0c-1.178.141-2.497.11-3.846-.277v3.843c1.371-.106 2.495-.834 3.438-1.91l.408-1.656zM17.24 5.243c-1.563-2.112-3.28-3.88-5.968-3.021-3.518 1.123-4.364 5.897-3.302 9.394.988 3.253 1.13 5.124-.404 6.31l-.235.151-.003.002-.001.001-1.756 1.216C3.378 21.047 2 23.598 2 26.951 2 33.967 14.931 48 27 48s25-14.033 25-21.049c0-3.353-1.378-5.904-3.569-7.655-.556-.444-1.157-.831-1.756-1.216l-.001-.001-.004-.003-.234-.151c-1.534-1.186-1.393-3.057-.404-6.31 1.062-3.496.216-8.27-3.302-9.394-2.688-.859-4.405.909-5.968 3.021-.287.387-.499.724-.678 1.008-.588.932-.809 1.281-2.072.905-2.272-.805-4.494-1.254-7.01-1.254s-4.739.448-7.01 1.254c-1.263.377-1.484.027-2.072-.905-.179-.283-.392-.621-.678-1.008zm-5.394 1.129c-.863 0-1.725.437-1.726 2.185 0 .897.227 1.679.506 2.64.265.913.577 1.988.787 3.478 3.019-1.748 3.451-2.622 3.451-4.371s-1.725-3.933-3.018-3.933zm30.308 0c.863 0 1.725.437 1.726 2.185 0 .897-.227 1.679-.506 2.64-.265.913-.577 1.988-.787 3.478-3.019-1.748-3.45-2.622-3.45-4.371s1.725-3.933 3.018-3.933zM27 8.63c-2.291 0-4.309.424-6.479 1.23.791 1.162 1.512 2.117 2.767 3.55 1.467 1.676 2.962 3.445 2.962 5.856 0 1.275-.491 2.431-1.027 3.312-.23.412-.492.786-.772 1.148-.145.187-.288.359-.424.523-.629.759-1.119 1.351-1.119 2.539 0 2.136 2.085 3.629 4.091 3.629 2.043 0 4.091-1.473 4.091-3.629 0-1.188-.49-1.779-1.119-2.539l-.424-.523c-.281-.362-.542-.736-.772-1.148-.535-.881-1.027-2.036-1.027-3.312 0-2.412 1.495-4.18 2.962-5.856 1.254-1.433 1.976-2.389 2.767-3.55-2.17-.806-4.188-1.23-6.479-1.23zM11.789 38.091c4.497 4.16 10.125 7.18 15.211 7.18s10.714-3.021 15.211-7.18c2.211-2.045 4.036-4.265 5.288-6.323 1.296-2.13 1.808-3.804 1.808-4.817 0-1.229-.238-2.282-.667-3.183-1.145-1.78-2.303-2.26-3.28-2.196-1.559.103-1.199 2.24-.877 3.789.751 3.613-2.778 9.342-6.309 12.512-.671.602-1.547-.274-1.276-1.139.776-2.474.816-6.001-3.302-8.886-.494 3.143-3.564 5.045-6.598 5.045s-6.103-1.902-6.597-5.045c-4.118 2.885-4.078 6.412-3.302 8.886.271.865-.605 1.741-1.276 1.139-3.53-3.17-7.06-8.9-6.309-12.512.322-1.549.682-3.687-.877-3.789-.977-.064-2.135.416-3.28 2.196-.428.901-.667 1.954-.667 3.183 0 1.013.513 2.687 1.808 4.817 1.253 2.059 3.077 4.279 5.288 6.323zm4.544-21.216c-1.674 1.508-1.945 3.708-.606 4.914a2.78 2.78 0 0 0 .615.418 3.44 3.44 0 0 0 .729.269 3.01 3.01 0 0 1-.826-2.076 3.02 3.02 0 0 1 3.021-3.021c1.49 0 2.727 1.078 2.976 2.497.642-1.277.518-2.673-.453-3.547-1.339-1.206-3.781-.962-5.455.546zm21.948 4.914c1.339-1.206 1.068-3.407-.606-4.914s-4.116-1.752-5.455-.546c-.97.874-1.095 2.271-.453 3.547a3.02 3.02 0 0 1 5.997.524 3.01 3.01 0 0 1-.826 2.076 3.47 3.47 0 0 0 .729-.269 2.78 2.78 0 0 0 .615-.418z" stroke="#f5f5f5" stroke-width="4" mask="url(#A)" class="D"/><path d="M20.521 9.861c2.17-.806 4.188-1.23 6.479-1.23s4.309.424 6.479 1.23c-.791 1.162-1.512 2.117-2.767 3.55-1.467 1.676-2.962 3.445-2.962 5.856 0 1.275.491 2.431 1.027 3.312.23.412.492.786.772 1.148l.424.523c.629.759 1.119 1.351 1.119 2.539 0 2.156-2.048 3.629-4.091 3.629-2.005 0-4.091-1.493-4.091-3.629 0-1.188.49-1.779 1.119-2.539l.424-.523c.281-.362.542-.736.772-1.148.535-.881 1.027-2.036 1.027-3.312 0-2.412-1.495-4.18-2.962-5.856-1.254-1.433-1.976-2.389-2.767-3.55zm-10.4-1.304c0-1.748.863-2.185 1.726-2.185 1.293 0 3.018 2.185 3.018 3.933s-.431 2.622-3.45 4.371c-.21-1.49-.522-2.565-.787-3.478-.279-.962-.506-1.744-.506-2.64zm33.759 0c0-1.748-.862-2.185-1.726-2.185-1.293 0-3.018 2.185-3.018 3.933s.431 2.622 3.45 4.371c.21-1.49.522-2.565.787-3.478.279-.962.506-1.744.506-2.64zm-6.205 8.318c1.674 1.508 1.945 3.708.606 4.914a2.78 2.78 0 0 1-.615.418 3.47 3.47 0 0 1-.729.269 3.01 3.01 0 0 0 .826-2.076 3.02 3.02 0 0 0-3.021-3.021c-1.49 0-2.727 1.078-2.976 2.497-.642-1.277-.518-2.673.453-3.547 1.339-1.206 3.781-.962 5.455.546zm-21.948 4.914c-1.339-1.206-1.068-3.407.606-4.914s4.116-1.752 5.455-.546c.971.874 1.095 2.271.453 3.547a3.02 3.02 0 0 0-5.997.524 3.01 3.01 0 0 0 .826 2.076c-.246-.061-.49-.149-.729-.269a2.78 2.78 0 0 1-.615-.418zM27 45.271c-5.086 0-10.714-3.021-15.211-7.18-2.211-2.045-4.036-4.265-5.288-6.323-1.296-2.13-1.808-3.804-1.808-4.817 0-1.229.239-2.282.667-3.183 1.145-1.78 2.303-2.26 3.28-2.196 1.559.103 1.199 2.24.877 3.789-.751 3.613 2.778 9.342 6.309 12.512.671.602 1.547-.274 1.276-1.139-.776-2.474-.816-6.001 3.302-8.886.494 3.143 3.564 5.045 6.598 5.045s6.104-1.902 6.598-5.045c4.118 2.885 4.078 6.412 3.302 8.886-.271.865.605 1.741 1.276 1.139 3.53-3.17 7.06-8.9 6.309-12.512-.322-1.549-.682-3.687.877-3.789.977-.064 2.135.416 3.28 2.196.428.901.667 1.954.667 3.183 0 1.013-.512 2.687-1.808 4.817-1.253 2.059-3.078 4.279-5.288 6.323-4.497 4.16-10.125 7.18-15.211 7.18zm-5.751-6.453c-.726-.974-1.272-2.026-1.665-2.93l-.083-.195a18.05 18.05 0 0 1-.265-.668l-.005-.013-.167-.465a.42.42 0 0 1-.022-.112c-.017-.303.321-.537.624-.402a11.95 11.95 0 0 0 1.512.554c.325.094.674.18 1.041.249 1.08.202 2.32.256 3.579-.056a7.05 7.05 0 0 0 .365-.101 7.04 7.04 0 0 0 .36-.121s.223-.083.477-.083c.297 0 .477.083.477.083a7.04 7.04 0 0 0 .36.121 7.05 7.05 0 0 0 .365.101c1.259.312 2.5.258 3.579.056a11.13 11.13 0 0 0 1.041-.249 11.97 11.97 0 0 0 1.513-.554c.302-.135.64.099.624.402a.42.42 0 0 1-.022.112 17.75 17.75 0 0 1-.167.465l-.005.013a18.05 18.05 0 0 1-.265.668l-.083.195c-.393.904-.94 1.956-1.665 2.93C31.476 40.53 29.516 42 27 42s-4.476-1.47-5.751-3.181zm5.268-2.423c-1.348.387-2.668.418-3.846.277l.408 1.656c.942 1.076 2.066 1.804 3.438 1.91v-3.843zm.966 0c1.348.387 2.668.418 3.846.277l-.408 1.656c-.942 1.076-2.066 1.804-3.438 1.91v-3.843z" stroke="#f5f5f5" stroke-width="4" mask="url(#A)" class="D"/><g fill="#303030" class="B"><use xlink:href="#C"/><use xlink:href="#D"/></g><defs ><path id="C" d="M21.249 38.819c-.726-.974-1.272-2.026-1.665-2.93l-.083-.195-.265-.668-.005-.013-.167-.465a.42.42 0 0 1-.022-.112c-.017-.303.321-.537.624-.402.399.178.915.38 1.512.554l1.041.249c1.08.202 2.32.256 3.579-.056l.365-.101.36-.121s.223-.083.477-.083c.297 0 .477.083.477.083l.36.121.365.101c1.259.312 2.5.258 3.579.056l1.041-.249c.598-.174 1.113-.376 1.513-.554.302-.135.64.099.624.402a.42.42 0 0 1-.022.112l-.167.465-.005.013-.265.668-.083.195c-.393.904-.94 1.956-1.665 2.93C31.476 40.53 29.516 42 27 42s-4.476-1.47-5.751-3.181zm1.422-2.146c1.178.141 2.497.11 3.846-.277v3.843c-1.371-.106-2.495-.834-3.438-1.91l-.408-1.656zm8.658 0c-1.178.141-2.497.11-3.846-.277v3.843c1.371-.106 2.495-.834 3.438-1.91l.408-1.656z"/><path id="D" d="M17.24 5.243c-1.563-2.112-3.28-3.88-5.968-3.021-3.518 1.123-4.364 5.897-3.302 9.394.988 3.253 1.13 5.124-.404 6.31l-.235.151-.003.002-.001.001-1.756 1.216C3.378 21.047 2 23.598 2 26.951 2 33.967 14.931 48 27 48s25-14.033 25-21.049c0-3.353-1.378-5.904-3.569-7.655-.556-.444-1.157-.831-1.756-1.216l-.001-.001-.004-.003-.234-.151c-1.534-1.186-1.393-3.057-.404-6.31 1.062-3.496.216-8.27-3.302-9.394-2.688-.859-4.405.909-5.968 3.021-.287.387-.499.724-.678 1.008-.588.932-.809 1.281-2.072.905-2.272-.805-4.494-1.254-7.01-1.254s-4.739.448-7.01 1.254c-1.263.377-1.484.027-2.072-.905-.179-.283-.392-.621-.678-1.008zm-5.394 1.129c-.863 0-1.725.437-1.726 2.185 0 .897.227 1.679.506 2.64.265.913.577 1.988.787 3.478 3.019-1.748 3.451-2.622 3.451-4.371s-1.725-3.933-3.018-3.933zm30.308 0c.863 0 1.725.437 1.726 2.185 0 .897-.227 1.679-.506 2.64-.265.913-.577 1.988-.787 3.478-3.019-1.748-3.45-2.622-3.45-4.371s1.725-3.933 3.018-3.933zM27 8.63c-2.291 0-4.309.424-6.479 1.23.791 1.162 1.512 2.117 2.767 3.55 1.467 1.676 2.962 3.445 2.962 5.856 0 1.275-.491 2.431-1.027 3.312-.23.412-.492.786-.772 1.148-.145.187-.288.359-.424.523-.629.759-1.119 1.351-1.119 2.539 0 2.136 2.085 3.629 4.091 3.629 2.043 0 4.091-1.473 4.091-3.629 0-1.188-.49-1.779-1.119-2.539l-.424-.523c-.281-.362-.542-.736-.772-1.148-.535-.881-1.027-2.036-1.027-3.312 0-2.412 1.495-4.18 2.962-5.856 1.254-1.433 1.976-2.389 2.767-3.55-2.17-.806-4.188-1.23-6.479-1.23zM11.789 38.091c4.497 4.16 10.125 7.18 15.211 7.18s10.714-3.021 15.211-7.18c2.211-2.045 4.036-4.265 5.288-6.323 1.296-2.13 1.808-3.804 1.808-4.817 0-1.229-.238-2.282-.667-3.183-1.145-1.78-2.303-2.26-3.28-2.196-1.559.103-1.199 2.24-.877 3.789.751 3.613-2.778 9.342-6.309 12.512-.671.602-1.547-.274-1.276-1.139.776-2.474.816-6.001-3.302-8.886-.494 3.143-3.564 5.045-6.598 5.045s-6.103-1.902-6.597-5.045c-4.118 2.885-4.078 6.412-3.302 8.886.271.865-.605 1.741-1.276 1.139-3.53-3.17-7.06-8.9-6.309-12.512.322-1.549.682-3.687-.877-3.789-.977-.064-2.135.416-3.28 2.196-.428.901-.667 1.954-.667 3.183 0 1.013.513 2.687 1.808 4.817 1.253 2.059 3.077 4.279 5.288 6.323zm4.544-21.216c-1.674 1.508-1.945 3.708-.606 4.914a2.78 2.78 0 0 0 .615.418c.239.12.483.209.729.269a3.01 3.01 0 0 1-.826-2.076 3.02 3.02 0 0 1 3.021-3.021c1.49 0 2.727 1.078 2.976 2.497.642-1.277.518-2.673-.453-3.547-1.339-1.206-3.781-.962-5.455.546zm21.948 4.914c1.339-1.206 1.068-3.407-.606-4.914s-4.116-1.752-5.455-.546c-.97.874-1.095 2.271-.453 3.547.248-1.419 1.486-2.497 2.976-2.497a3.02 3.02 0 0 1 3.021 3.021 3.01 3.01 0 0 1-.826 2.076 3.47 3.47 0 0 0 .729-.269 2.78 2.78 0 0 0 .615-.418z"/></defs></svg>