<!-- Generator: Adobe Illustrator 22.0.0, SVG Export Plug-In  -->
<svg version="1.1"
	 xmlns="http://www.w3.org/2000/svg" xmlns:xlink="http://www.w3.org/1999/xlink" xmlns:a="http://ns.adobe.com/AdobeSVGViewerExtensions/3.0/"
	 x="0px" y="0px" width="119.7px" height="68px" viewBox="0 0 119.7 68"
	 style="overflow:scroll;enable-background:new 0 0 119.7 68;" xml:space="preserve">
<style type="text/css">
	.st0{fill:url(#SVGID_1_);}
	.st1{fill:url(#SVGID_2_);}
</style>
<defs>
</defs>
<linearGradient id="SVGID_1_" gradientUnits="userSpaceOnUse" x1="232.06" y1="-556.0408" x2="351.785" y2="-556.0408" gradientTransform="matrix(1 0 0 -1 -232.06 -522.0468)">
	<stop  offset="0" style="stop-color:#C8FCFB"/>
	<stop  offset="0" style="stop-color:#45E7F0"/>
	<stop  offset="1" style="stop-color:#893ACC"/>
</linearGradient>
<path class="st0" d="M118,49.6c-0.6,1.1-1.4,2.1-2.2,3c-0.4,0.4-0.8,0.8-1.3,1.1c-0.4,0.3-0.8,0.4-1.3,0.3c-0.4-0.1-0.7-0.4-1-0.8
	c-0.3-0.5-0.6-0.9-0.8-1.5c-0.4-1.1-0.8-2.3-1.1-3.5c-0.4-1.2-0.8-2.4-1.4-3.6c-0.6-1.3-1.3-2.4-2.3-3.4c-0.5-0.5-1.1-1-1.8-1.3
	c-0.1,0-0.2-0.1-0.3-0.2c0.7-0.2,1.5-0.4,2.2-0.7c1.4-0.6,2.6-1.4,3.6-2.5c1.1-1.1,1.9-2.5,2.3-4c0.4-1.6,0.4-3.2-0.2-4.8
	c-0.3-0.8-0.8-1.6-1.5-2.1c-0.7-0.6-1.5-1-2.4-1.2c-0.9-0.1-1.7,0-2.6,0.3c-0.4,0.1-0.7,0.3-1,0.5c-0.3,0.2-0.6,0.4-0.9,0.7
	c-1.1,0.9-2.1,2-3,3.1c-0.5,0.6-0.9,1.1-1.3,1.8c-0.4,0.6-0.7,1.3-1,1.9c-1.3,2.6-2.2,5.3-2.8,8.1c-0.1,0.3-0.2,0.7-0.2,1l-0.2,1.1
	c-0.1,0.7-0.2,1.4-0.3,2.2c0,0.4-0.1,0.7-0.1,1.1v0c-0.7,1-1.4,1.9-2.2,2.7c-0.7,0.8-1.4,1.5-2.2,2.1c-0.7,0.6-1.6,1.1-2.4,1.5
	c-0.7,0.4-1.5,0.5-2.2,0.4c-0.5-0.1-0.7-0.4-1-0.8c-0.3-0.6-0.5-1.2-0.7-1.9c-0.2-0.8-0.3-1.6-0.4-2.4c-0.2-1.7-0.3-3.6-0.4-5.4
	c0-0.7,0-1.3,0-2.1c1.1-0.2,2.1-0.5,3.1-0.9c1.4-0.6,2.7-1.5,3.7-2.6c0.5-0.6,1-1.2,1.3-2c0.3-0.7,0.6-1.4,0.7-2.2
	c0.2-0.8,0.1-1.6-0.3-2.4c-0.2-0.4-0.5-0.7-0.8-1c-0.2-0.1-0.3-0.2-0.5-0.3L90.3,29h0c-1.1-0.2-2.2-0.2-3.3-0.1
	c-1.1,0.3-2.2,0.8-3.1,1.5c-1.8,1.5-3.2,3.3-4.1,5.5c-0.9,2.1-1.5,4.2-1.8,6.5c-0.1,0.5-0.1,0.9-0.2,1.3c-0.6,0.8-1.2,1.6-1.8,2.5
	c-0.8,1.2-1.6,2.4-2.4,3.5c-0.4,0.6-0.8,1.1-1.3,1.7c-0.2,0.3-0.5,0.5-0.7,0.8c-0.3,0.3-0.5,0.5-0.7,0.7c-0.5,0.3-1,0.6-1.5,0.9
	c-0.5,0.2-1,0.5-1.5,0.6c-1,0.3-2,0.3-2.4-0.2c-0.8-0.7-1.2-2.8-1.3-4.9S64,45,64,42.8v-0.5c2.3-0.6,4.3-1.7,6.1-3.3
	c0.9-0.9,1.6-1.9,2.1-3.1c0.5-1.2,0.8-2.4,0.9-3.6c0-0.7-0.1-1.4-0.4-2c-0.2-0.3-0.4-0.7-0.6-0.9c-0.3-0.2-0.6-0.5-1-0.6
	c-0.7-0.3-1.4-0.3-2.2-0.2c-0.7,0.1-1.4,0.3-2,0.6c-1.2,0.6-2.3,1.4-3.2,2.5c-0.2,0.3-0.5,0.5-0.6,0.8l-0.6,0.8
	c-0.4,0.6-0.7,1.1-1,1.8c-1.2,2.3-2,4.8-2.5,7.3c-0.3,1.8-0.4,3.7-0.3,5.5c-0.4,0.8-0.7,1.5-1,2.3c-0.7,1.5-1.3,3.1-2,4.6
	c-0.7,1.5-1.3,3.1-2,4.5c-0.7,1.5-1.6,2.8-2.7,3.9c-0.5,0.5-1.2,0.9-1.8,1.1c-0.2,0-0.3,0-0.5,0c-0.2,0-0.3,0-0.5,0
	s-0.3-0.1-0.4-0.2l-0.2-0.1l-0.1-0.1c-0.3-0.5-0.5-1.1-0.5-1.8c0-0.7,0-1.5,0-2.2v-2.3l0-2.4c0.1-3.3,0.2-6.6,0.1-10.1
	c0-0.9-0.1-1.7-0.2-2.6c0-0.5-0.1-0.9-0.2-1.3c-0.1-0.2-0.1-0.5-0.2-0.7l0-0.1c0,0,0,0,0-0.1l-0.1-0.2l-0.1-0.3
	c-0.1-0.2-0.2-0.4-0.3-0.6c-0.1-0.2-0.3-0.4-0.4-0.6c-0.1-0.1-0.2-0.2-0.3-0.3c-0.1-0.1-0.2-0.2-0.3-0.3c-0.1-0.1-0.2-0.2-0.4-0.2
	c-0.1,0-0.3-0.1-0.5-0.1c-0.6-0.1-1.1,0-1.6,0.4c-0.4,0.3-0.7,0.6-1,0.9c-1.1,1.3-2.1,2.7-2.8,4.2c-0.8,1.5-1.6,3-2.3,4.5
	c-0.2,0.4-0.3,0.8-0.5,1.2l-0.4,1.2c-0.2,0.5-0.4,1-0.6,1.5l0.1-0.9l0.1-0.6l0-0.6c0.3-3.3,0.8-6.5,1.3-9.8c0.1-0.9,0.3-1.8,0.5-2.6
	c2.4-1.3,4.6-2.8,6.8-4.4c2.4-1.9,4.9-3.9,6.9-6.3c2.1-2.4,3.7-5.3,4.6-8.3l0,0.1c0.3-0.9,0.6-1.7,0.8-2.6c0.1-0.5,0.1-0.9,0.2-1.3
	s0-0.9,0-1.3c0.1-1.8-0.3-3.6-0.9-5.3c-0.4-0.8-0.8-1.6-1.3-2.4c-0.5-0.8-1.2-1.4-1.8-2.1c-0.7-0.6-1.6-1-2.6-1.1
	c-0.9-0.2-1.9-0.2-2.8,0c-0.5,0.1-1,0.3-1.4,0.5C44.8,2.5,44.5,2.8,44,3c-0.8,0.5-1.5,1.1-2.2,1.7c-0.6,0.7-1.2,1.4-1.7,2.2
	c-0.5,0.8-0.9,1.5-1.3,2.3c-0.8,1.6-1.5,3.2-2.1,4.7c-0.3,0.8-0.6,1.5-0.9,2.3l-0.5,1.2c-0.2,0.4-0.3,0.9-0.4,1.3
	c-0.1,0.2-0.1,0.4-0.2,0.7l-0.2,0.6c-0.1,0.4-0.2,0.8-0.3,1.3l-0.5,2.5c-0.3,1.7-0.6,3.4-0.8,5c-0.4,3.1-0.8,6.2-1,9.3
	c-1.6,0.8-3.2,1.5-4.9,2.3c-1.2,0.5-2.5,1.1-3.7,1.6c-0.3-0.4-0.5-0.9-0.8-1.3c-0.8-1.2-1.7-2.2-2.5-3.3c-1.5-2.2-3.1-4.3-4.6-6.4
	s-3.1-4.2-4.6-6.3l-0.6-0.8l-0.3-0.4l-0.2-0.3C9.4,23,9.1,22.5,8.8,22c-0.5-0.9-0.9-1.9-1.2-2.9c-0.6-1.8-0.8-3.6-0.7-5.5
	c0.1-1,0.3-2,0.7-2.9c0.5-1,1.1-1.9,1.8-2.8c1.6-1.7,3.5-3.1,5.7-4c1.1-0.5,2.2-0.9,3.4-1.1c1.1-0.2,2.3-0.3,3.5-0.2
	c1.1,0.1,2.2,0.5,3.2,1c0.9,0.6,1.7,1.5,2.1,2.5c0.4,1.1,0.6,2.3,0.6,3.4c0,1.2-0.2,2.4-0.5,3.6c-0.7,2.3-1,4.9-1.7,7.5
	c0.8-1.1,1.5-2.2,2.2-3.3l0.5-0.9c0.1-0.3,0.3-0.6,0.4-0.9c0.1-0.3,0.2-0.6,0.3-1c0.1-0.3,0.2-0.6,0.3-1c0.3-1.3,0.5-2.7,0.5-4.1
	c0-1.4-0.2-2.8-0.8-4.1c-0.2-0.3-0.3-0.7-0.5-1c-0.1-0.2-0.2-0.3-0.3-0.5L28,3.5c-0.4-0.6-1-1.1-1.6-1.5c-1.2-0.9-2.5-1.5-4-1.7
	c-2.8-0.5-5.7-0.2-8.3,0.6C11.3,1.7,8.7,3,6.5,4.8c-1.2,0.9-2.2,2-3.2,3.1c-1,1.2-1.9,2.6-2.5,4.1c-0.6,1.6-0.9,3.2-0.8,4.9
	c0.1,1.6,0.4,3.3,1.1,4.8c0.6,1.4,1.4,2.7,2.4,3.9l0.7,0.9c0.3,0.3,0.5,0.5,0.7,0.8l0.4,0.4l0.3,0.3c0.2,0.2,0.4,0.5,0.6,0.7
	c1.7,1.9,3.3,3.9,4.9,5.9c1.6,2,3.1,4,4.5,6.1c0.7,1,1.2,2.2,1.8,3.2c0.1,0.3,0.3,0.5,0.4,0.7c-2.6,1.1-5.1,2.3-7.6,3.6
	c-1.4,0.7-2.7,1.5-4,2.4c-1.3,0.9-2.5,2-3.5,3.2c-0.5,0.7-0.9,1.4-1.3,2.2C1.2,56.9,1,57.8,1,58.6c0,0.9,0.2,1.7,0.5,2.5
	c0.3,0.8,0.6,1.5,1,2.2l0,0c0.7,1.3,1.7,2.3,2.9,3.1c1.2,0.7,2.5,1.2,3.9,1.4l1,0.1c0.3,0,0.7,0,1,0c0.7,0,1.4-0.1,2.1-0.1
	c1.4-0.2,2.7-0.5,4.1-1c1.4-0.5,2.7-1.1,3.9-1.9c1.3-0.8,2.4-1.9,3.4-3.1c0.5-0.7,0.9-1.4,1.3-2.2c0.3-0.7,0.5-1.5,0.6-2.3
	c0.4-1.5,0.5-3,0.4-4.5c0-1.6-0.3-3.1-0.8-4.6c-0.4-1.4-1-2.7-1.7-4l-0.6-1.1c1.2-0.5,2.4-1.1,3.6-1.6c1.4-0.7,2.9-1.3,4.3-2.1
	c-0.3,3.2-0.5,6.4-0.6,9.6v0.6l0,0.6L31,51.7c0,0.8-0.1,1.7-0.1,2.6c0,0.9,0,1.8,0,2.7c0,0.3,0.1,0.5,0.1,0.8
	c0.1,0.2,0.1,0.3,0.1,0.5c0,0.1,0.1,0.2,0.1,0.3c0.1,0.2,0.1,0.3,0.3,0.4c0.1,0.1,0.2,0.2,0.3,0.3l0.2,0.2c0.1,0.1,0.2,0.1,0.3,0.2
	c0.2,0.1,0.5,0.2,0.8,0.2c0.3,0,0.5,0,0.8-0.1c0.2,0,0.3-0.1,0.5-0.2c0.1-0.1,0.2-0.1,0.3-0.2l0.1-0.1l0.1-0.1l0.1-0.2
	c0.2-0.3,0.4-0.6,0.5-0.9c0.4-0.8,0.6-1.7,0.8-2.6c0.2-0.8,0.3-1.7,0.5-2.6s0.3-1.7,0.4-2.5c0.1-0.4,0.2-0.8,0.2-1.2
	s0.2-0.8,0.3-1.2c0.3-0.8,0.5-1.5,0.8-2.3s0.6-1.5,1-2.3c0.3-0.7,0.8-1.5,1.2-2.1c0.4-0.7,0.9-1.3,1.5-1.9c0.3-0.3,0.6-0.5,0.9-0.7
	c0.2-0.1,0.5-0.2,0.8-0.1c0.4,0.2,0.7,0.9,0.9,1.6l0.1,0.3l0,0.1c0.1,0,0,0,0,0v0.1c0.1,0.2,0.1,0.4,0.1,0.5c0,0.4,0,0.8,0,1.1
	c0,0.8-0.1,1.6-0.2,2.4c-0.4,3.2-1.1,6.5-1.4,9.9c-0.1,0.8-0.1,1.7-0.1,2.6c0,0.9,0,1.8,0.2,2.6c0.1,0.9,0.4,1.9,0.8,2.7
	c0.1,0.2,0.2,0.5,0.3,0.7c0.1,0.2,0.3,0.5,0.5,0.7l0.3,0.3l0.3,0.3c0.2,0.2,0.4,0.4,0.7,0.5c0.1,0.1,0.3,0.1,0.4,0.2l0.4,0.2
	c0.3,0.1,0.6,0.1,0.8,0.1c0.3,0,0.5,0,0.8,0c0.3,0,0.5-0.1,0.8-0.2c0.9-0.3,1.7-0.8,2.4-1.5c1.2-1.3,2.3-2.7,3.1-4.2
	c0.9-1.5,1.6-3,2.4-4.5c0.7-1.4,1.3-2.8,1.9-4.3c0.3,1,0.7,2,1.2,3c0.4,0.7,0.9,1.3,1.5,1.9c0.7,0.6,1.5,1.1,2.3,1.3
	c0.8,0.2,1.7,0.2,2.6-0.1c0.7-0.2,1.3-0.5,1.9-0.9c1-0.8,2-1.6,2.8-2.6l0,0c0.2-0.3,0.4-0.6,0.7-0.9c0.3-0.3,0.5-0.6,0.7-0.8
	l1.3-1.7l2.5-3.4c0.3-0.4,0.6-0.8,0.9-1.2c0,1.2,0.2,2.4,0.4,3.6c0.3,1.2,0.7,2.3,1.2,3.4c0.6,1.3,1.5,2.4,2.6,3.3
	c0.7,0.5,1.4,0.9,2.2,1.1c0.8,0.2,1.6,0.2,2.4,0c1.3-0.4,2.4-1,3.4-1.9c1.5-1.6,2.8-3.3,3.9-5.1c0.5-0.7,0.9-1.4,1.3-2.1
	c0,0.7,0.1,1.3,0.3,2c0.3,1.5,0.9,2.9,1.6,4.2c0.7,1.3,1.8,2.4,3,3.3c-0.3-1.4-0.4-2.7-0.5-4.1c-0.1-1.3-0.1-2.6-0.1-3.9
	c0-1.3-0.1-2.5-0.2-3.8c-0.1-1.3-0.1-2.6,0-3.9c0-0.3,0-0.5,0.1-0.8c0.4-0.3,0.8-0.6,1.3-0.7c0.6,0,1.3,0,1.9,0
	c0.2,0.6,0.5,1.1,0.6,1.7c0.2,0.5,0.3,1.1,0.5,1.6c0.4,1.1,0.9,2.2,1.4,3.3c1.1,2.4,2.6,4.6,4.3,6.5c0.5,0.6,1,1.1,1.5,1.5
	c0.3,0.3,0.7,0.5,1,0.6c0.4,0.2,0.9,0.3,1.3,0.3c0.8,0,1.6-0.4,2.2-1c0.5-0.5,0.9-1,1.3-1.6c1.4-2.2,2.3-4.6,3.2-7
	C119.3,47.4,118.7,48.5,118,49.6z M21.5,56.5c-0.1,0.5-0.2,1.2-0.3,1.5c-0.1,0.4-0.3,0.9-0.5,1.3c-0.5,1-1.1,1.8-1.8,2.6
	c-0.8,0.9-1.7,1.6-2.7,2.2c-2,1.4-4.3,2.1-6.7,2.1c-1.2,0-2.4-0.4-3.4-1c-1-0.7-1.7-1.6-2.2-2.6l0,0l0,0c-0.7-1.3-1.3-2.6-1.3-3.9
	c0-0.7,0.1-1.3,0.3-2c0.3-0.6,0.6-1.2,1-1.8c0.9-1.1,2-2.1,3.2-3c1.2-0.9,2.5-1.7,3.8-2.4c2.4-1.3,5-2.6,7.5-3.7
	c0.3,0.5,0.6,1,0.8,1.5c0.6,1,1.1,2,1.5,3.1c0.4,1,0.6,2,0.8,3C21.7,54.4,21.6,55.5,21.5,56.5L21.5,56.5z M39,25
	c0.3-1.6,0.7-3.2,1-4.7l0.1-0.5c0-0.2,0.1-0.4,0.2-0.5l0.4-1.1c0.3-0.8,0.5-1.6,0.8-2.4c0.5-1.6,0.9-3.2,1.3-4.6
	c0.3-0.8,0.5-1.5,0.8-2.2s0.6-1.3,1-2c0.3-0.7,0.7-1.4,1.1-2c0.2-0.3,0.5-0.6,0.8-0.9c0.2-0.3,0.5-0.5,0.8-0.7
	c0.6-0.4,1.4-0.6,2.1-0.4C50,3,50.7,3.4,51.2,3.9c0.5,0.6,0.8,1.3,1.1,2c0.3,0.7,0.5,1.5,0.6,2.2C53,8.5,53,8.9,53.1,9.3
	s0.1,0.8,0.2,1.1c0.1,0.8,0.2,1.5,0.2,2.3c0,1.5-0.2,3.1-0.6,4.5l0,0.1C51.7,23,47.9,28.2,43,31.8c-1.9,1.4-3.9,2.7-6,3.9
	c0.3-2,0.7-3.9,1-5.8C38.3,28.2,38.6,26.6,39,25z M32.3,56.8L32.3,56.8L32.3,56.8L32.3,56.8z M64.7,36.2c0.1-0.5,0.3-1,0.5-1.5
	l0.4-0.8c0.1-0.3,0.3-0.5,0.4-0.7c0.5-0.9,1.2-1.7,2.1-2.3c0.8-0.6,1.8-1,2.7-0.8c0.4,0.1,0.8,0.4,1,0.8c0.3,0.4,0.4,1,0.4,1.5
	c0,0.6,0,1.1-0.2,1.7c-0.1,0.3-0.1,0.6-0.2,0.8c-0.1,0.3-0.2,0.6-0.3,0.8c-0.4,1.1-1.1,2-1.9,2.8c-1.5,1.4-3.5,2.2-5.5,2.6
	C64.1,39.4,64.3,37.7,64.7,36.2L64.7,36.2z M83.9,37.1c0.1-0.9,0.3-1.8,0.5-2.7c0.2-0.9,0.6-1.8,1-2.6c0.4-0.8,1.1-1.5,1.9-2
	c0.8-0.5,1.8-0.6,2.8-0.4c1.3,0.6,1.7,1.9,1.5,3.3c-0.1,0.7-0.3,1.3-0.6,1.9c-0.3,0.6-0.7,1.2-1.1,1.7c-1,1-2.1,1.8-3.4,2.3
	c-0.9,0.4-1.7,0.6-2.6,0.8C83.7,38.7,83.7,37.9,83.9,37.1L83.9,37.1z M100.5,39.6c-0.4,0.1-0.7,0.2-1,0.4c0,0,0,0-0.1,0.1
	c0.2-2.2,0.7-4.3,1.4-6.3c0.4-1.3,0.9-2.5,1.5-3.6c0.7-1.1,1.6-2,2.7-2.7c0.5-0.3,1.1-0.6,1.7-0.7c0.5-0.1,1-0.1,1.5,0.1
	c0.9,0.3,1.5,1.1,1.8,2.1c0.4,1.1,0.5,2.2,0.3,3.3c-0.1,0.6-0.2,1.2-0.5,1.7c-0.1,0.3-0.2,0.6-0.4,0.8c-0.1,0.3-0.3,0.5-0.5,0.8
	c-0.7,1.1-1.7,2-2.8,2.6c-0.3,0.2-0.5,0.3-0.9,0.5c-0.3,0.2-0.6,0.3-0.9,0.4c-0.6,0.2-1.3,0.3-1.9,0.4
	C101.8,39.4,101.1,39.5,100.5,39.6L100.5,39.6z"/>
</svg>
