<svg width="129" height="23" viewBox="0 0 129 23" fill="none" xmlns="http://www.w3.org/2000/svg">
	<g clip-path="url(#clip0)">
		<path d="M26.8288 0.793073C25.9187 0.793073 25.1668 1.54652 25.1668 2.49825C25.1668 3.21204 25.6021 3.84652 26.2352 4.08445L20.7349 12.2138C20.7349 12.1741 17.2923 6.02756 16.0656 3.80687C16.4217 3.48962 16.6987 3.01376 16.6987 2.45859C16.6987 1.50687 15.9469 0.753418 15.0368 0.753418C14.1266 0.753418 13.3748 1.50687 13.3748 2.45859C13.3748 3.01376 13.6518 3.52928 14.0475 3.84652L9.41773 12.1741L3.99657 4.12411C4.55055 3.84652 4.94626 3.25169 4.94626 2.5379C4.94626 1.58618 4.19442 0.793073 3.2843 0.793073C2.3346 0.793073 1.58276 1.58618 1.58276 2.5379C1.58276 3.331 2.05761 3.96549 2.69074 4.20342V17.8448H9.4573H12.8208V14.4741C12.8208 13.2051 13.8496 12.1741 15.0763 12.1741C16.303 12.1741 17.3318 13.2051 17.3318 14.4741V17.8448H20.6953H27.4619V4.08445C28.095 3.80687 28.4907 3.21204 28.4907 2.49825C28.4907 1.54652 27.7389 0.793073 26.8288 0.793073Z" fill="url(#paint0_linear)"/>
		<path d="M38.6329 9.28659H36.407V6.51504H38.6329V4.523C38.6329 3.9071 38.689 3.3297 38.7919 2.78116C38.8947 2.23263 39.1005 1.75146 39.3998 1.33765C39.699 0.923847 40.1292 0.596651 40.6904 0.356066C41.2515 0.115481 41.9904 0 42.8976 0C43.2436 0 43.5803 0.0192468 43.9076 0.048117C44.235 0.0769872 44.5623 0.134728 44.8709 0.211715L44.7119 3.14685C44.5155 3.06987 44.3378 3.01213 44.1695 2.97363C44.0012 2.93514 43.8141 2.91589 43.6084 2.91589C43.0659 2.91589 42.6638 3.03137 42.3925 3.27196C42.1213 3.51254 41.9904 4.00334 41.9904 4.73471V6.51504H44.4875V9.28659H41.9997V17.7359H38.6329V9.28659Z" fill="url(#paint1_linear)"/>
		<path d="M52.0534 16.331H52.0067C51.6326 16.9276 51.1369 17.3607 50.5103 17.6205C49.893 17.8803 49.2384 18.015 48.5463 18.015C48.0413 18.015 47.5456 17.9381 47.078 17.7937C46.6103 17.6494 46.1895 17.428 45.8341 17.1393C45.4787 16.8506 45.1888 16.4849 44.983 16.0519C44.7773 15.6188 44.665 15.1184 44.665 14.5506C44.665 13.9059 44.7773 13.3573 45.0111 12.9146C45.2449 12.472 45.5535 12.0967 45.9557 11.808C46.3485 11.5193 46.8067 11.2883 47.3118 11.1247C47.8168 10.9611 48.3499 10.8456 48.8923 10.7686C49.4348 10.6916 49.9866 10.6435 50.529 10.6339C51.0714 10.6147 51.5765 10.6147 52.0441 10.6147C52.0441 9.99875 51.829 9.50796 51.4081 9.15189C50.9779 8.7862 50.4729 8.61298 49.893 8.61298C49.3412 8.61298 48.8362 8.72846 48.3779 8.96905C47.9197 9.20963 47.5175 9.53683 47.1528 9.95064L45.3571 8.05483C45.9837 7.45817 46.7226 7.00587 47.5549 6.70755C48.3966 6.40922 49.2571 6.25525 50.1549 6.25525C51.1463 6.25525 51.9506 6.38035 52.5865 6.64019C53.2225 6.89039 53.7275 7.26571 54.111 7.7565C54.4944 8.24729 54.7563 8.85357 54.9059 9.5657C55.0556 10.2778 55.1304 11.1054 55.1304 12.0485V17.7552H52.0347V16.331H52.0534ZM51.2211 12.8184C50.9686 12.8184 50.6506 12.828 50.2671 12.8569C49.8837 12.8858 49.5189 12.9435 49.1635 13.0494C48.8082 13.1552 48.5089 13.3188 48.2657 13.5305C48.0226 13.7423 47.8916 14.0502 47.8916 14.4351C47.8916 14.849 48.06 15.1569 48.406 15.359C48.752 15.5611 49.1074 15.6573 49.4815 15.6573C49.8089 15.6573 50.1268 15.6092 50.4355 15.5226C50.7441 15.4264 51.0153 15.3012 51.2585 15.128C51.5016 14.9548 51.6887 14.7431 51.829 14.4833C51.9693 14.2234 52.0441 13.9155 52.0441 13.5594V12.8184H51.2211Z" fill="url(#paint2_linear)"/>
		<path d="M57.0103 6.51508H60.106V7.98746H60.1527C60.2837 7.78537 60.4614 7.58328 60.6765 7.37156C60.8916 7.15985 61.1441 6.97701 61.4434 6.80378C61.7333 6.63056 62.0513 6.49584 62.3973 6.38998C62.7434 6.28412 63.1081 6.22638 63.5009 6.22638C64.3052 6.22638 65.044 6.37073 65.6987 6.64981C66.3534 6.93851 66.9239 7.33307 67.3915 7.85274C67.8591 8.3724 68.2239 8.97867 68.4764 9.69081C68.7289 10.4029 68.8598 11.1728 68.8598 12.0197C68.8598 12.8088 68.7476 13.5594 68.5138 14.2715C68.28 14.9837 67.9526 15.6188 67.5224 16.177C67.0922 16.7351 66.5778 17.1778 65.9606 17.505C65.3433 17.8322 64.6512 18.0054 63.875 18.0054C63.1736 18.0054 62.5189 17.8899 61.911 17.6686C61.3031 17.4473 60.8074 17.0623 60.4146 16.5234H60.3678V23H57.001V6.51508H57.0103ZM60.106 12.1255C60.106 12.9724 60.3398 13.6556 60.8168 14.1849C61.2844 14.7046 61.9484 14.9741 62.7995 14.9741C63.6505 14.9741 64.3146 14.7142 64.7822 14.1849C65.2498 13.6653 65.493 12.9724 65.493 12.1255C65.493 11.2787 65.2591 10.5954 64.7822 10.0661C64.3146 9.54645 63.6505 9.277 62.7995 9.277C61.9484 9.277 61.2844 9.53683 60.8168 10.0661C60.3398 10.5954 60.106 11.2787 60.106 12.1255Z" fill="url(#paint3_linear)"/>
		<path d="M73.639 0.279114V8.03558H73.6858C73.7606 7.82386 73.8915 7.60252 74.0692 7.39081C74.2469 7.17909 74.462 6.98663 74.7239 6.81341C74.9764 6.64018 75.2757 6.50546 75.6217 6.3996C75.9678 6.29374 76.3419 6.236 76.744 6.236C77.5951 6.236 78.2871 6.37073 78.8109 6.64018C79.3346 6.90964 79.7461 7.28495 80.036 7.7565C80.326 8.23767 80.5224 8.79583 80.6346 9.44059C80.7375 10.0854 80.7936 10.7879 80.7936 11.5385V17.7263H77.4267V12.2314C77.4267 11.9042 77.4174 11.577 77.3893 11.2305C77.3706 10.8841 77.2958 10.5665 77.1836 10.2682C77.0713 9.97951 76.903 9.73892 76.6692 9.55608C76.4354 9.37323 76.108 9.277 75.6685 9.277C75.2383 9.277 74.8829 9.35398 74.6117 9.51758C74.3404 9.68118 74.1347 9.89289 73.9944 10.1623C73.8541 10.4318 73.7606 10.7398 73.7138 11.0766C73.6671 11.4134 73.6484 11.7695 73.6484 12.1351V17.7263H70.2815V0.279114H73.639Z" fill="white"/>
		<path d="M82.1965 12.1255C82.1965 11.2306 82.3555 10.4222 82.6642 9.70045C82.9821 8.97869 83.4123 8.35317 83.9548 7.84313C84.4972 7.32347 85.1425 6.92891 85.8814 6.64983C86.6202 6.37075 87.4152 6.23602 88.2475 6.23602C89.0893 6.23602 89.8749 6.37075 90.6137 6.64983C91.3525 6.92891 91.9979 7.32347 92.5403 7.84313C93.0827 8.36279 93.5129 8.97869 93.8309 9.70045C94.1489 10.4222 94.2985 11.2306 94.2985 12.1255C94.2985 13.0205 94.1396 13.8289 93.8309 14.5506C93.5129 15.2724 93.0827 15.8979 92.5403 16.408C91.9979 16.9276 91.3525 17.3222 90.6137 17.6013C89.8749 17.8803 89.0799 18.0151 88.2475 18.0151C87.4058 18.0151 86.6202 17.8803 85.8814 17.6013C85.1425 17.3222 84.4972 16.9276 83.9548 16.408C83.4123 15.8883 82.9821 15.2724 82.6642 14.5506C82.3555 13.8289 82.1965 13.0205 82.1965 12.1255ZM85.5634 12.1255C85.5634 12.9724 85.7972 13.6557 86.2742 14.185C86.7418 14.7046 87.4058 14.9741 88.2569 14.9741C89.108 14.9741 89.772 14.7142 90.2396 14.185C90.7072 13.6653 90.9504 12.9724 90.9504 12.1255C90.9504 11.2787 90.7166 10.5954 90.2396 10.0661C89.772 9.54647 89.108 9.27702 88.2569 9.27702C87.4058 9.27702 86.7418 9.53685 86.2742 10.0661C85.7972 10.5954 85.5634 11.2787 85.5634 12.1255Z" fill="white"/>
		<path d="M106.232 17.7359H102.996V16.2154H102.95C102.828 16.4271 102.678 16.6485 102.491 16.8602C102.304 17.0719 102.08 17.2644 101.809 17.4376C101.537 17.6108 101.229 17.7455 100.892 17.8514C100.546 17.9572 100.172 18.015 99.7697 18.015C98.9187 18.015 98.2266 17.8803 97.6935 17.6108C97.1604 17.3413 96.7489 16.966 96.459 16.4945C96.1691 16.0133 95.9727 15.4552 95.8791 14.8104C95.7856 14.1656 95.7295 13.4631 95.7295 12.7125V6.51501H99.0964V12.01C99.0964 12.3372 99.1057 12.6644 99.1338 13.0108C99.1618 13.3573 99.2273 13.6748 99.3395 13.9732C99.4518 14.2619 99.6201 14.5024 99.8539 14.6853C100.088 14.8681 100.415 14.9644 100.855 14.9644C101.285 14.9644 101.64 14.8874 101.911 14.7238C102.183 14.5602 102.388 14.3485 102.529 14.079C102.669 13.8096 102.763 13.5016 102.809 13.1648C102.856 12.828 102.875 12.4719 102.875 12.1062V6.51501H106.242V17.7359H106.232Z" fill="white"/>
		<path d="M114.228 9.81593C113.733 9.18078 113.087 8.87283 112.274 8.87283C111.993 8.87283 111.713 8.9402 111.441 9.08455C111.17 9.2289 111.039 9.45986 111.039 9.79668C111.039 10.0758 111.18 10.2779 111.451 10.4126C111.731 10.5473 112.077 10.6628 112.508 10.759C112.938 10.8553 113.387 10.9707 113.873 11.0862C114.359 11.2017 114.818 11.3845 115.239 11.6251C115.669 11.8753 116.015 12.2025 116.295 12.626C116.576 13.0494 116.707 13.6172 116.707 14.3197C116.707 15.0414 116.557 15.6381 116.249 16.1096C115.94 16.5812 115.547 16.9565 115.07 17.2452C114.593 17.5339 114.051 17.7264 113.452 17.8418C112.854 17.9573 112.264 18.0151 111.675 18.0151C110.908 18.0151 110.141 17.8996 109.365 17.6782C108.589 17.4569 107.925 17.0624 107.392 16.4849L109.431 14.1561C109.749 14.5603 110.095 14.8586 110.478 15.0703C110.862 15.282 111.301 15.3783 111.816 15.3783C112.208 15.3783 112.554 15.3205 112.872 15.205C113.19 15.0896 113.34 14.8778 113.34 14.5699C113.34 14.2812 113.2 14.0599 112.928 13.9155C112.648 13.7711 112.302 13.646 111.872 13.5498C111.441 13.4536 110.993 13.3381 110.506 13.2226C110.02 13.1071 109.562 12.9339 109.141 12.703C108.711 12.472 108.365 12.1448 108.084 11.7214C107.803 11.2979 107.672 10.7302 107.672 10.0276C107.672 9.36363 107.803 8.79585 108.065 8.31468C108.327 7.83351 108.673 7.44857 109.094 7.14062C109.524 6.83267 110.011 6.60171 110.562 6.45736C111.114 6.31301 111.675 6.23602 112.246 6.23602C112.966 6.23602 113.686 6.34188 114.425 6.56322C115.154 6.77493 115.781 7.15987 116.286 7.71803L114.228 9.81593Z" fill="white"/>
		<path d="M128.21 15.8017C127.668 16.5138 126.994 17.0527 126.171 17.4377C125.348 17.8226 124.497 18.0151 123.609 18.0151C122.767 18.0151 121.982 17.8803 121.243 17.6013C120.504 17.3222 119.859 16.9276 119.316 16.408C118.774 15.8883 118.343 15.2724 118.025 14.5506C117.707 13.8289 117.558 13.0205 117.558 12.1255C117.558 11.2306 117.717 10.4222 118.025 9.70045C118.343 8.97869 118.774 8.35317 119.316 7.84313C119.859 7.32347 120.504 6.92891 121.243 6.64983C121.982 6.37075 122.777 6.23602 123.609 6.23602C124.385 6.23602 125.096 6.37075 125.732 6.64983C126.368 6.92891 126.91 7.32347 127.35 7.84313C127.789 8.36279 128.135 8.97869 128.369 9.70045C128.612 10.4222 128.725 11.2306 128.725 12.1255V13.213H120.915C121.046 13.877 121.346 14.4063 121.794 14.7912C122.243 15.1858 122.795 15.3783 123.459 15.3783C124.011 15.3783 124.479 15.2532 124.862 14.9933C125.246 14.7431 125.573 14.4159 125.863 14.0117L128.21 15.8017ZM125.358 10.8553C125.376 10.2682 125.189 9.76781 124.797 9.35401C124.404 8.9402 123.908 8.72848 123.291 8.72848C122.917 8.72848 122.589 8.78622 122.3 8.91133C122.019 9.03643 121.776 9.19041 121.57 9.38288C121.364 9.57534 121.215 9.79668 121.102 10.0565C120.99 10.3067 120.925 10.5762 120.915 10.8553H125.358Z" fill="white"/>
	</g>
	<defs>
		<linearGradient id="paint0_linear" x1="24.5861" y1="17.861" x2="24.5861" y2="5.09483" gradientUnits="userSpaceOnUse">
			<stop stop-color="#E6A70C"/>
			<stop offset="1" stop-color="#F4BB2E"/>
		</linearGradient>
		<linearGradient id="paint1_linear" x1="40.6374" y1="17.7379" x2="40.6374" y2="0" gradientUnits="userSpaceOnUse">
			<stop stop-color="#E6A70C"/>
			<stop offset="1" stop-color="#F4BB2E"/>
		</linearGradient>
		<linearGradient id="paint2_linear" x1="49.8958" y1="18.0163" x2="49.8958" y2="6.25525" gradientUnits="userSpaceOnUse">
			<stop stop-color="#E6A70C"/>
			<stop offset="1" stop-color="#F4BB2E"/>
		</linearGradient>
		<linearGradient id="paint3_linear" x1="62.9282" y1="23.0018" x2="62.9282" y2="6.22638" gradientUnits="userSpaceOnUse">
			<stop stop-color="#E6A70C"/>
			<stop offset="1" stop-color="#F4BB2E"/>
		</linearGradient>
		<clipPath id="clip0">
			<rect width="128.725" height="23" fill="white"/>
		</clipPath>
	</defs>
</svg>
